# xmcd CD database file
#
# Track frame offsets:
#	150
#	10592
#	25418
#	40089
#	53005
#	74350
#	91000
#	108220
#
# Disc length: 1740 seconds
#
# Revision: 0
# Processed by: cddbd v1.5.2PL0 Copyright (c) Steve Scherf et al.
# Submitted via: CDex 1.51
#
DISCID=5406ca08
DTITLE=Microsleep - Microsleep
DYEAR=2007
DGENRE=New Age
TTITLE0=Hell Nobody
TTITLE1=Get My Name Right
TTITLE2=My Error
TTITLE3=Bat An Eyelid
TTITLE4=Re: Using Me
TTITLE5=Winter Coat
TTITLE6=City Sidewalk
TTITLE7=Beats Per Meter
EXTD=YEAR: 2007
EXTT0=
EXTT1=
EXTT2=
EXTT3=
EXTT4=
EXTT5=
EXTT6=
EXTT7=
PLAYORDER=
